<svg xmlns="http://www.w3.org/2000/svg" width="24" height="24" viewBox="0 0 24 24" color="#EEF0F2">
  <title>Settings / Options</title>
  <g fill="none" stroke="currentColor" stroke-width="1.55" stroke-linecap="round" stroke-linejoin="round">
<path d="m9.6 3.4.6-1.4h3.6l.6 1.4 1.6.7 1.4-.6L20 6.1l-.6 1.4.7 1.6 1.4.6v3.6l-1.4.6-.7 1.6.6 1.4-2.6 2.6-1.4-.6-1.6.7-.6 1.4h-3.6l-.6-1.4-1.6-.7-1.4.6L4 16.9l.6-1.4-.7-1.6-1.4-.6V9.7l1.4-.6.7-1.6L4 6.1l2.6-2.6 1.4.6Z"/>
      <circle cx="12" cy="11.5" r="3.2"/>
  </g>
</svg>
